<svg id="Capa_2" xmlns="http://www.w3.org/2000/svg" width="111.6" height="69.1" viewBox="0 0 111.6 69.1">
  <style>
    .st0{fill:#211915;}
  </style>
  <g id="XMLID_25_">
    <path id="XMLID_34_" class="st0" d="M.4 47.4c0-.2 0-.6-.1-1.2S.2 45 .1 44.5c0-.5-.1-1.1-.1-1.6V41v-2.4c0-.7.1-1.5.1-2.2 0-.4.1-1 .3-1.8.2-.8.4-1.4.4-1.8 0-.3.1-.7.1-1.2v-1.4s.1-.9.1-1.2c.1-.4.2-1 .4-1.8s.3-1.4.3-1.9c.1-1 .3-2.2.6-3.6v-1.8c0-.8 0-1.3.1-1.6 0-.4.4-1.7 1.1-3.9.7-2.2 1.1-3.3 1.1-3.5.1-.3.1-.7 0-.9-.1-.3-.1-.6 0-.8.2-.5.4-1 .6-1.6.2-.6.4-1 .5-1.4.2-.4.4-.9.8-1.5.1-.2.3-.2.5-.2s.4.1.5.2c.5.4.8.8 1 1 .3.3.6.6.8 1.1.2.4.5.8.7 1.2.3.3.4.6.4.8s0 .4-.1.8-.2.7-.2.9c-.1.8-.2 1.5-.3 2-.1.5-.2 1-.3 1.6-.1.6-.2 1.4-.3 2.4-.1.5-.3 1.4-.6 2.8s-.5 2.5-.6 3.4c-.1.8-.4 1.9-.8 3.5s-.7 2.8-.8 3.6c-.1.8-.3 1.9-.5 3.6-.1 1.6-.3 2.8-.4 3.6-.1.5-.2 1.2-.4 1.9s-.3 1.3-.4 1.8c-.1.5-.2 1.1-.3 1.7l-.3 1.8-.3 1.8c.6-1.3 1.8-3.4 3.5-6.3 1.6-2.6 2.6-4.2 3.2-4.9.9-1.2 2-2.2 3.3-3.1.5-.3 1-.6 1.5-.7.6-.2 1-.2 1.1-.2.1 0 .3 0 .4.1.1.1.2.1.3.2 0 .1.1.1.2.3.1.1.1.2.2.3.2.2.5.7.9 1.6.7 1.5 1.1 2.5 1.3 3.1.1.6.2 1.6.1 3.1 0 .3-.1.7 0 1.5v1.5c-.2 1.9-.4 3.6-.7 5.3 2.1-2.4 4-4.7 5.5-7.1.2-.3.4-.7.6-1.2.3-.5.4-.9.6-1.2.8-1.3 1.2-2.1 1.3-2.3 0 0 .1-.1 0-.3 0-.1 0-.2.1-.3.1-.1.3.1.8.5l.1.1H28c0 .1-.1.3-.3.4-.4.6-1 1.4-1.7 2.5-.8 1.1-1.2 1.7-1.4 1.9-.5.7-.9 1.4-1.4 2.2-.5.8-1 1.5-1.5 2.3-.3.4-.9 1.1-1.5 2s-1.3 1.9-1.9 2.7c-.3.8-.7 2.1-1.3 3.7 0 0 0-.1-.1-.1s-.1-.1-.1-.1c-.1.4-.2.8-.1 1.2.1.5-.2.9-.8 1.1-.6.2-1 .1-1.3-.3-.3-.5-.6-.9-.9-1.4-.3-.4-.6-.9-.8-1.2h-.2c0-.8.2-1.8.3-3.1s.3-2.2.3-2.6c.2-1 .4-2.4.6-4.3.2-1.9.4-3.2.5-4 0 0 .2-.9.7-2.6.3-.7.5-1.5.6-2.6 0-.1.1-.2 0-.3 0-.1 0-.2-.1-.4v-.3-.1-.1c-.1-.1-.2-.2-.3-.2-.4 0-1.1.4-2.2 1.2-1.6 1.4-3.4 3.6-5.3 6.6C6.4 42.3 5.4 44 5 45c-.8 1.7-1.4 3.5-1.8 5.4v.3c0 .1 0 .2-.1.3-.1-.1-.1 0-.2 0-.3 0-.6 0-.8-.2-.3 0-.8-.1-1.4-.4-.2-.1-.3-.2-.4-.3 0-.1-.1-.2 0-.4v-.5-.8s.1-.7.1-1zM17 53.9s-.1 0-.1.1l.1-.1z"/>
    <path id="XMLID_37_" class="st0" d="M41.5 40.9c-.9 1.1-1.7 2-2.6 2.9-.2.1-.4.4-.8.8l-.9.9c-.1.1-.8.5-2.1 1.1-.8.4-1.3.7-1.6.7 0 0-.1 0-.2-.1h-.2s-.1.1-.1.3c0 0-.1 0-.1-.1l-.1-.1h-.2-.2c-2.4.1-4.3-.7-5.8-2.2-.4-.5-.8-1-1.1-1.5-.3-.5-.5-1.1-.7-1.7 0-.3-.1-.5-.1-.9v-.8c0-.2.1-.5.1-.9.2-.1.2-.3.2-.5.5-3.1 1.5-5.6 3.1-7.7 1.6-2.1 3.7-3.4 6.3-4.1 1.7-.4 3.2-.3 4.5.3 1.2.6 1.8 1.5 1.8 2.6 0 0 0 .1-.1.1s-.1.1-.1.2l.1.1-.2.1v.1l.1.1c0 .1-.1.2-.1.3v.3c-.3 1-.7 1.7-1.2 2.3-.8.8-2 1.4-3.8 1.7-1.6.3-2.6.4-3.1.4h-.6c-.2 0-.4 0-.5-.1s-.3-.1-.4-.1h-.7c-.4 1.6-.7 2.8-.8 3.8 0 .3-.1.7-.1 1.3v1c0 .2 0 .5-.1.8s-.1.5-.1.7v.7c.1.6.5 1.2 1.2 1.7s1.4.8 2.1.9c.1 0 .1 0 .2-.1l.1-.1.1-.1s.1 0 .1.1.1.1.1.1.1-.1.1-.2.1-.1.2-.1c.5 0 1-.1 1.3-.2 1.4-.6 2.7-1.5 3.7-2.5.2-.2 1-1.1 2.3-2.6 1-1.2 1.7-2 2.1-2.6.3-.3.5-.6.7-.8.2-.2.3-.4.4-.5.1-.1.2-.4.4-.7 0-.1.1-.2.1-.3 0-.2 0-.3.1-.3.4.1.7.3.9.6v.2s-.1.1-.2.1l-.2.2c-.6.8-1.2 1.5-1.6 2.1-.2.3-.5.6-1 1.1-.2.5-.5.9-.7 1.2zm-2.4-10.8c-.3-.9-.9-1.3-2-1.3-1.3-.1-2.7.5-4.1 1.8-.8.8-1.4 1.3-1.6 1.7-.5.6-.8 1.5-1.1 2.5.9.1 1.5.1 1.9.1 1.6 0 3.1-.3 4.4-.9 1.4-.6 2.2-1.6 2.4-2.8v-.5-.1s0-.1.1-.1v-.4z"/>
    <path id="XMLID_40_" class="st0" d="M59.8 40.9c-.9 1.1-1.7 2-2.6 2.9-.2.1-.4.4-.8.8l-.9.9c-.1.1-.8.5-2.1 1.1-.8.4-1.3.7-1.6.7 0 0-.1 0-.2-.1h-.2s-.1.1-.1.3c0 0-.1 0-.1-.1l-.1-.1h-.2-.2c-2.4.1-4.3-.7-5.8-2.2-.4-.5-.8-1-1.1-1.5-.3-.5-.5-1.1-.7-1.7 0-.3-.1-.5-.1-.9v-.8c0-.2.1-.5.1-.9.1-.4.1-.6.1-.8.5-3.1 1.5-5.6 3.1-7.7 1.6-2.1 3.7-3.4 6.3-4.1 1.7-.4 3.2-.3 4.5.3 1.3 1 1.9 1.8 1.9 3 0 0 0 .1-.1.1s-.1.1-.1.2l.1.1-.2.1v.1l.1.1c0 .1-.1.2-.1.3v.3c-.3 1-.7 1.7-1.2 2.3-.8.8-2 1.4-3.8 1.7-1.6.3-2.6.4-3.1.4H50c-.2 0-.4 0-.5-.1s-.3-.1-.4-.1h-.7c-.4 1.6-.7 2.8-.8 3.8 0 .3-.1.7-.1 1.3v1c0 .2 0 .5-.1.8s-.1.5-.1.7v.7c.1.6.5 1.2 1.2 1.7s1.4.8 2.1.9c.1 0 .1 0 .2-.1l.1-.1.1-.1s.1 0 .1.1.1.1.1.1.1-.1.1-.2.1-.1.2-.1c.5 0 1-.1 1.3-.2 1.4-.6 2.7-1.5 3.7-2.5.2-.2 1-1.1 2.3-2.6 1-1.2 1.7-2 2.1-2.6.3-.3.5-.6.7-.8.2-.2.3-.4.4-.5.1-.1.2-.4.4-.7 0-.1.1-.2.1-.3 0-.2 0-.3.1-.3.4.1.7.3.9.6v.2s-.1.1-.2.1l-.2.2c-.6.8-1.2 1.5-1.6 2.1-.2.3-.5.6-1 1.1-.2.4-.5.8-.7 1.1zm-2.4-10.8c-.3-.9-.9-1.3-2-1.3-1.3-.1-2.7.5-4.1 1.8-.8.8-1.4 1.3-1.6 1.7-.5.6-.8 1.5-1.1 2.5.9.1 1.5.1 1.9.1 1.6 0 3.1-.3 4.4-.9 1.4-.6 2.2-1.6 2.4-2.8v-.5-.1h-.1s0-.1.1-.1v-.4z"/>
    <path id="XMLID_43_" class="st0" d="M80.4 37.1c0 .1.1.1.2.2 0 0 .1 0 .1.1-.2.4-.5.8-.8 1.2-.3.4-.6.8-.9 1.4-.8 1.6-2.2 3.9-4.1 6.9-.2.3-.4.7-.7 1.1-.3.5-.5.9-.7 1.2-.2.4-.5.7-.8 1.2-.3.4-.6.8-1 1.1-.2.1-.4.3-.8.4-.4.1-.6.3-.7.3-.9.5-1.4.8-1.6.8-.8.1-1.5 0-2.2-.4-.7-.4-1.3-.8-1.7-1.4-.2-.2-.5-.8-.9-1.8 0-.1-.1-.1-.2-.2s-.2-.1-.2-.2 0-.1-.1-.2c-.1 0-.1-.1-.1-.2.2-.1.3-.2.3-.3.2-.1.3-.1.3-.2h-.4l.1-.1.1-.1c0-.1 0-.2-.1-.2-.1-.1-.1-.1-.1-.2 0-.2-.1-.5-.1-.9s-.1-.7-.1-.9c0-.1-.1-.3-.2-.5s-.1-.4-.2-.6c-.1-.2-.1-.4-.1-.5-.1-.8-.1-3.1-.1-6.9 0-1 .2-3.2.6-6.7.1-.6.2-1.6.3-3.1.1-1.5.2-2.6.3-3.3.1-.7.4-1.7.8-2.9s.7-2.1.8-2.6c.2-.6.3-1.6.4-2.9.1-1.3.3-2.2.4-2.8.1-.5.3-1 .4-1.5.1-.5.3-1.1.4-1.6s.3-1 .3-1.3c.2-.5.3-1.1.4-1.9.1-.8.2-1.3.3-1.6.1-.4.3-.8.7-1.3.3-.5.5-.7.5-.8.1-.2.1-.3.2-.4 0-.1.1-.2.1-.3.1-.3.2-.5.2-.9V.6c0-.2 0-.3.2-.4.1-.1.3-.2.6-.3.4.1.8.1 1.2.1s.6.1.9.2c.3.1.5.2.7.3.1 0 .3.2.7.5.4.3.8.5 1.1.8.3.2.5.3.5.5s0 .3-.1.4c-.1.1-.3.3-.4.6-.2.3-.3.6-.3.9 0 .1-.1.1-.2.2-.1 0-.2.1-.3.1-.1 0-.1.1-.2.3-.1.1-.1.4-.1.9s-.1.9-.2 1.2c0 .3-.2.7-.4 1.5-.2.7-.4 1.3-.5 1.8-.1.4-.2 1.1-.3 2.1-.1 1-.2 1.8-.3 2.3-.1.6-.3 1.5-.6 2.6s-.5 2-.6 2.5c-.1.3-.2.8-.3 1.5-.1.6-.2 1.1-.2 1.4l-.3.9c-.1.3-.3.7-.4 1-.1.3-.2.7-.3.9-.5 2.5-.8 4.6-1.1 6.1 0 .3-.1.9 0 1.6 0 .8 0 1.3-.1 1.6 0 .3-.2.9-.3 1.5s-.3 1.2-.3 1.6c-.3 1.8-.4 3.8-.4 6.2v1.6c0 .2-.1.4-.3.7-.2.3-.3.6-.3.7l.2.2c.1.1.2.1.2.2-.2 0-.3 0-.3.1h.1s-.1.1-.2.1-.2.1-.2.1c0 .1 0 .1.1.2.1 0 .2.1.2.1.1 0 .1.1.2.1.1.1.1.1.1.2 0 .6.1 1 .1 1.1.2.3.3.5.4.6.1.1.3.1.5.1.6.1 1.2-.1 2-.6 1.8-1.3 3-2.4 3.8-3.3 1-1.3 1.8-2.5 2.5-3.7.3-.4.5-1 .7-1.8.2-.8.4-1.3.5-1.5.3-.6.6-1 1-1.4.4-.3.6-.7.9-1.2 0 0 0-.1-.1-.3 0-.1-.1-.2-.1-.3s0-.1.1-.1c.2 0 .3 0 .3.1s.1.2.2.3c.2.6.3.7.4.8zm-16.9-8.8c.1-1.4.3-2.5.6-3.3.2-.3.3-.6.3-.8l-.3.8c-.6 1.3-.8 2.6-.6 3.8v-.5zm.1 1.7v-.8.8zm1-5.5s.1-.3.4-.7c.3-.4.3-.7.3-.8l-.4-.2c0 .2 0 .5-.1.9-.1.3-.2.6-.2.8zm.1.9V25v.4c0 .2-.1.3-.1.3.1-.1.1-.2.1-.3zm.4-3.8c0-.2.1-.4.3-.8.1-.3.2-.6.2-.8-.3.4-.5.9-.5 1.6z"/>
    <path id="XMLID_50_" class="st0" d="M89.7 31.4c-.1.9-.3 1.3-.4 1.3-.6 0-1-.1-1.1-.1-.1 0-.1-.2.1-.4.1-.1.1-.2.1-.3 0 0 0-.1-.1-.1s-.1-.1-.1-.1 0-.1.1-.1.1-.1.1-.1c0-.1-.1-.4-.4-.8-.4-.6-.8-.8-1.4-.8-.5.1-1 .4-1.5 1-.6.6-1 1.4-1.3 2.3-.1.3-.2 1.2-.3 2.8-.3 3.6-.4 5.7-.4 6.4 0 .3.2.6.6.9.4.3.7.4.9.2.5-.4.9-.9 1.4-1.5.4-.5.9-1.1 1.3-1.7.4-.6.8-1.2 1.1-1.7s.7-1.1 1-1.8c.4-.7.7-1.2.9-1.6.4-1.3 1.1-2.5 2-3.7v-.2c0-.1 0-.1.1-.1h.1c.3-.6.4-1 .6-1.2.1-.1.2-.3.2-.5.1-.2.1-.4.2-.5.1-.1.2-.2.4-.2h.5c.1.1.3.2.4.3.1.2.3.3.5.4.2.1.3.3.4.5 0 .2 0 .5-.1.9s-.2.6-.2.7c0 .1-.1.3 0 .5v.6c-.2 1.1-.5 2.3-.8 3.8-.1.3-.3 1.1-.6 2.4-.3 1.3-.6 2.3-.7 3l-.1.3-.1.1.1.1v-.1l.1.1c0 .1-.1.2-.1.3 0 .1-.1.1-.1.2s-.1.2-.1.3v3.5c0 .3.1.6.2.9l.1.2s-.1 0-.1.1h.2s.1-.1.2-.3c.1-.1.1-.2.2-.3.2-.2.7-.6 1.5-1.2s1.3-1 1.7-1.4c1.8-1.8 3.9-4.4 6.4-7.7.2-.3.4-.5.6-.6.2-.2.3-.4.5-.6 0 0 .1-.1 0-.2v-.2c0-.1 0-.1.1-.1.4.1.7.3.8.6v.2h-.2c-.1 0-.2 0-.2.1-.2.2-.3.4-.4.6-.1.2-.3.4-.5.7-.2.2-.4.5-.7.8-.3.3-.6.7-1 1.2s-.7.8-1 1.2c-.3.4-.9 1.1-1.7 2.2-.8 1-1.5 2-2.2 2.8-.7.8-1.3 1.6-1.9 2.3-.1.1-.2.2-.3.4 0 .2-.1.3-.2.4 0 0-.1.1-.3.2-.1.1-.3.2-.4.3l-.3.3c-.1 0-.1.1-.2.2 0 .1-.1.1-.2.2l-.1-.1-.1.2c-.3 0-.5.1-.6.1s-.3-.1-.6-.3c-.1-.1-.3-.2-.5-.3-.2-.1-.4-.1-.5-.2-.1-.1-.2-.1-.3-.2-.9-1.2-1.6-3.1-2-5.6v-.4c0-.1.1-.3.1-.4v-.5s.1 0 .1-.1-.1-.3-.2-.4c-.1-.1-.2-.2-.2-.3.1-1.2.4-2.4.7-3.8-.1.3-.5 1-1.1 2.3s-1.2 2.3-1.6 3c-.1.1-.2.3-.3.4-.1.2-.3.3-.4.5-.1.2-.3.3-.3.5-.5.7-1 1.2-1.4 1.5l-.6.6h-.4c-.2 0-.4 0-.6-.1 0 0-.1-.1-.1-.2s-.1-.2-.1-.2c-.8-.4-1.6-1.3-2.2-2.9-1.1-2.6-1.3-5.3-.6-7.9.3-1 .9-2.1 2-3.4.9-1.1 1.7-1.9 2.5-2.4 2.1-1.2 3.8-1 5 .6.2.4.4.9.4 1.4zm3.2 16.7l-.1-.1.1.1zm.2-5.8h.1-.1z"/>
    <path id="XMLID_55_" class="st0" d="M111.6 46.2c0 .1-.1.3-.2.6l-.3.9v.7c-.3.8-.4 1.3-.4 1.4 0 .1 0 .3-.1.6-.2 0-.4-.1-.7-.1-1.7-.2-2.7-.4-3-.6-.1-.3-.1-.9 0-1.9.1-1 .2-1.5.3-1.7v-.3c0-.1 0-.2-.1-.3v-.2c0-.1 0-.1.1-.2 0 0 .1-.1.2-.1 1.1-.1 1.8-.2 2.1-.1.3.1.9.3 1.6.6.4.2.6.4.5.7z"/>
  </g>
  <g id="XMLID_53_">
    <path id="XMLID_2_" class="st0" d="M1.3 65.5v1.4h1.9v.4H1.3V69H.8v-4h2.5v.4h-2z"/>
    <path id="XMLID_4_" class="st0" d="M7.7 68.1l-.4 1h-.6l1.8-4H9l1.8 4h-.5l-.4-1H7.7zm1-2.5l-.9 2h1.8l-.9-2z"/>
    <path id="XMLID_7_" class="st0" d="M17.2 65.5l-.2.4c-.4-.2-.8-.3-1.1-.3-.5 0-.8.2-.8.5 0 1 2.2.5 2.2 1.9 0 .7-.6 1.1-1.4 1.1-.6 0-1.1-.2-1.5-.6l.2-.4c.4.4.9.6 1.3.6.6 0 .9-.2.9-.6 0-1-2.2-.5-2.2-1.9 0-.6.6-1 1.4-1 .4-.1.9 0 1.2.3z"/>
    <path id="XMLID_9_" class="st0" d="M24.5 69.1v-1.8h-2.4v1.8h-.5v-4h.5v1.8h2.4v-1.8h.5v4h-.5z"/>
    <path id="XMLID_11_" class="st0" d="M29.6 69.1v-4h.4v4h-.4z"/>
    <path id="XMLID_13_" class="st0" d="M38.4 67.1c0 1.1-.9 2-2.1 2-1.2 0-2.1-.9-2.1-2s.9-2 2.1-2c1.2 0 2.1.9 2.1 2zm-3.7 0c0 .9.7 1.6 1.6 1.6S38 68 38 67.1c0-.9-.7-1.6-1.6-1.6s-1.7.7-1.7 1.6z"/>
    <path id="XMLID_16_" class="st0" d="M45.5 69.1l-2.4-3.2v3.2h-.5v-4h.5l2.4 3.2v-3.2h.5v4h-.5z"/>
    <path id="XMLID_18_" class="st0" d="M58.7 65.7l-.2.3c-.3-.3-.7-.5-1.2-.5-.9 0-1.6.7-1.6 1.6 0 .9.7 1.6 1.6 1.6.4 0 .9-.2 1.2-.5l.3.3c-.4.4-.9.6-1.5.6-1.1 0-2.1-.9-2.1-2s.9-2 2.1-2c.5 0 1.1.2 1.4.6z"/>
    <path id="XMLID_20_" class="st0" d="M66.2 67.4c0 1-.6 1.7-1.7 1.7-1 0-1.7-.6-1.7-1.7v-2.3h.5v2.3c0 .8.5 1.2 1.2 1.2s1.2-.5 1.2-1.2v-2.3h.5v2.3z"/>
    <path id="XMLID_22_" class="st0" d="M73 68.7v.4h-2.2v-4h.5v3.6H73z"/>
    <path id="XMLID_24_" class="st0" d="M78.3 65.5V69h-.5v-3.5h-1.3v-.4h3.1v.4h-1.3z"/>
    <path id="XMLID_27_" class="st0" d="M86.9 67.4c0 1-.6 1.7-1.7 1.7-1 0-1.7-.6-1.7-1.7v-2.3h.5v2.3c0 .8.5 1.2 1.2 1.2s1.2-.5 1.2-1.2v-2.3h.5v2.3z"/>
    <path id="XMLID_29_" class="st0" d="M93.2 67.8H91.8v1.3h-.5v-4H93c1 0 1.6.5 1.6 1.3 0 .7-.3 1.1-.9 1.3l.9 1.4h-.5l-.9-1.3zm-.2-.4c.7 0 1.1-.3 1.1-.9 0-.6-.4-.9-1.1-.9h-1.1v1.8H93z"/>
    <path id="XMLID_32_" class="st0" d="M99.4 65.5v1.3h2v.4h-2v1.4h2.3v.4H99v-4h2.7v.4h-2.3z"/>
  </g>
</svg>
